<svg preserveAspectRatio="none" width="100%" height="100%" overflow="visible" style="display: block;" viewBox="0 0 22.7138 22.7138" fill="none" xmlns="http://www.w3.org/2000/svg">
<g id="Left icon wrapper">
<path id="Left icon" d="M11.3564 3.84473C11.8464 3.84473 12.2441 4.2424 12.2441 4.73242V15.8379L17.3545 10.7295C17.701 10.3834 18.263 10.3832 18.6093 10.7295C18.9555 11.0758 18.9552 11.6369 18.6093 11.9834L11.9931 18.5986C11.9751 18.6172 11.956 18.6345 11.9365 18.6514C11.9222 18.6638 11.9074 18.6752 11.8925 18.6865C11.8553 18.7148 11.8168 18.7415 11.7754 18.7637C11.7598 18.772 11.7435 18.7788 11.7275 18.7861C11.7171 18.7909 11.7069 18.7964 11.6963 18.8008C11.6873 18.8045 11.678 18.8071 11.6689 18.8105C11.6242 18.8274 11.5781 18.8411 11.5302 18.8506C11.5195 18.8527 11.5088 18.8547 11.498 18.8564C11.452 18.8638 11.4045 18.8691 11.3564 18.8691C11.3095 18.8691 11.2637 18.8635 11.2187 18.8564C11.2063 18.8545 11.1939 18.853 11.1816 18.8506C11.1635 18.847 11.1456 18.8426 11.1279 18.8379C11.1188 18.8355 11.1096 18.8338 11.1005 18.8311C11.0862 18.8267 11.0726 18.8204 11.0586 18.8154C11.0174 18.8008 10.9765 18.7846 10.9375 18.7637C10.8564 18.7202 10.7832 18.6641 10.7197 18.5986L4.10543 11.9834C3.75898 11.6369 3.75895 11.076 4.10543 10.7295C4.45194 10.3834 5.01298 10.3832 5.35934 10.7295L10.4687 15.8379V4.73242C10.4687 4.24256 10.8666 3.84497 11.3564 3.84473Z" fill="var(--fill-0, #FAFAFA)"/>
</g>
</svg>
