<svg preserveAspectRatio="xMidYMid meet" width="273" height="273" overflow="visible" style="display: block;" viewBox="0 0 272.99 273.397" fill="none" xmlns="http://www.w3.org/2000/svg">
<g id="Group 116">
<circle id="Ellipse 8" opacity="0.33" cx="86.7223" cy="86.7227" r="76.5614" fill="var(--fill-0, #8EC5FF)"/>
<circle id="Ellipse 7" cx="86.7223" cy="86.7223" r="80.6729" stroke="var(--stroke-0, #2F3D4C)" stroke-width="12.0987"/>
<path id="Vector 42" d="M157.155 168.893L141.157 152.895L152.562 141.638L169.108 158.183C169.814 158.889 170.79 159.255 171.785 159.188L176.465 158.873C179.853 158.644 183.173 159.903 185.557 162.322L261.948 239.799C268.059 245.996 268.024 255.964 261.869 262.118C255.653 268.334 245.564 268.299 239.392 262.04L161.734 183.287C159.723 181.248 158.533 178.54 158.389 175.68L158.163 171.164C158.12 170.308 157.761 169.499 157.155 168.893Z" fill="var(--fill-0, #2F3D4C)"/>
<path id="Vector 43" opacity="0.5" d="M28.0761 103.668C15.8491 72.5223 35.6509 31.2293 74.961 26.0957" stroke="var(--stroke-0, white)" stroke-width="9.07405" stroke-linecap="round"/>
<circle id="Ellipse 9" opacity="0.5" cx="90.5591" cy="25.003" r="5.13327" fill="var(--fill-0, white)"/>
</g>
</svg>
