<svg preserveAspectRatio="xMidYMid meet" width="433" height="276" overflow="visible" style="display: block;" viewBox="0 0 433.304 275.535" fill="none" xmlns="http://www.w3.org/2000/svg">
<g id="Group 115">
<rect id="Rectangle 85" x="170.136" y="85.6767" width="96.8969" height="107.798" fill="var(--fill-0, #8E98A4)"/>
<g id="Group 114">
<path id="Vector 28" d="M9.65595 274.504V64.7025" stroke="var(--stroke-0, #8E98A4)" stroke-width="19.3119"/>
<path id="Vector 29" d="M423.648 274.504V64.7025" stroke="var(--stroke-0, #8E98A4)" stroke-width="19.3119"/>
<path id="Vector 30" d="M19.571 51.7533C19.571 46.4205 15.2479 42.0974 9.91503 42.0974C4.5822 42.0974 0.259081 46.4205 0.259081 51.7533L9.91504 51.7533L19.571 51.7533ZM9.91504 64.5385L19.571 64.5385L19.571 51.7533L9.91504 51.7533L0.259081 51.7533L0.259082 64.5385L9.91504 64.5385Z" fill="var(--stroke-0, #D9D8DA)"/>
<path id="Vector 31" d="M433.304 51.7533C433.304 46.4205 428.981 42.0974 423.648 42.0974C418.315 42.0974 413.992 46.4205 413.992 51.7533L423.648 51.7533L433.304 51.7533ZM423.648 64.5385L433.304 64.5385L433.304 51.7533L423.648 51.7533L413.992 51.7533L413.992 64.5385L423.648 64.5385Z" fill="var(--stroke-0, #D9D8DA)"/>
<path id="Vector 32" d="M13.998 104.344C54.7011 49.4818 128.439 4.64916 218.105 4.64916C323.108 4.64916 377.379 51.2515 423.982 104.344" stroke="var(--stroke-0, #8E98A4)" stroke-width="9.29833"/>
<path id="Vector 33" d="M72.7381 51.2513C72.8012 53.6559 72.7644 198.912 72.7381 271.24" stroke="var(--stroke-0, #8E98A4)" stroke-width="9.29833"/>
<path id="Vector 39" d="M363.477 45.1888C363.54 47.5934 363.503 198.913 363.477 271.241" stroke="var(--stroke-0, #8E98A4)" stroke-width="9.29833"/>
<path id="Vector 34" d="M120.855 24.0317C120.918 26.4362 120.881 198.913 120.855 271.241" stroke="var(--stroke-0, #8E98A4)" stroke-width="9.29833"/>
<path id="Vector 38" d="M313.755 24.0317C313.818 26.4362 313.781 198.913 313.755 271.241" stroke="var(--stroke-0, #8E98A4)" stroke-width="9.29833"/>
<path id="Vector 35" d="M169.748 10.4493C169.811 12.8539 169.774 198.496 169.748 270.824" stroke="var(--stroke-0, #8E98A4)" stroke-width="9.29833"/>
<path id="Vector 37" d="M265.787 10.8655C265.85 13.27 265.814 198.912 265.787 271.24" stroke="var(--stroke-0, #8E98A4)" stroke-width="9.29833"/>
<path id="Vector 36" d="M217.172 9.01953C217.235 11.4241 217.198 197.067 217.172 269.394" stroke="var(--stroke-0, #8E98A4)" stroke-width="9.29833"/>
<path id="Vector 40" d="M11.4404 270.886H427.255" stroke="var(--stroke-0, #8E98A4)" stroke-width="9.29833"/>
</g>
<path id="Vector 41" d="M234.801 172.892H199.925L207.274 139.836C192.05 126.203 197.335 104.343 217.315 104.343C237.295 104.343 241.739 126.578 227.711 139.836L234.801 172.892Z" fill="var(--fill-0, #767A7F)"/>
</g>
</svg>
