<svg preserveAspectRatio="none" width="100%" height="100%" overflow="visible" style="display: block;" viewBox="0 0 219.176 152.255" fill="none" xmlns="http://www.w3.org/2000/svg">
<path id="Vector 9" d="M24.4823 96.6695C22.8552 97.4426 21.663 110.981 21.2703 117.653C38.7659 117.534 74.4221 118.402 77.0816 122.834C78.1025 120.322 80.7953 115.949 83.3986 118.553C86.6527 121.807 89.6899 126.349 86.942 126.609C84.1941 126.869 94.2457 131.063 99.3076 130.846C103.357 130.672 110.396 133.955 113.409 135.619L110.17 143.935L112.469 144.97V147.116C115.867 148.201 122.737 150.645 123.026 151.744C123.026 151.744 129.848 152.492 133.078 152.178H144.973V144.97L208.099 147.116L217.249 144.97C218.125 141.675 219.702 134.236 219.001 130.846C218.125 126.609 213.017 114.537 213.017 111.026C210.716 108.035 205.507 99.6198 203.077 89.8853C200.648 80.1509 194.334 72.6822 191.481 70.1647C188.721 69.6125 182.702 63.8697 180.714 45.3163C178.726 26.7629 163.228 9.1483 155.727 2.66019C146.57 1.64793 126.793 -0.293746 120.94 0.0375653C113.623 0.451704 88.2228 15.7749 84.0814 22.5596C79.94 29.3443 57.1623 47.5257 55.0851 49.0442C53.4232 50.259 41.6047 52.2959 35.9032 53.1625L36.7234 58.7078L27.6204 59.2835C28.3935 60.5171 27.9425 63.8779 27.6204 65.4041C26.7783 68.4656 26.152 70.0015 23.8932 71.5246L0.839417 65.4041L0 67.5424C8.16075 69.5209 24.6957 73.9473 25.5497 75.8247C26.6172 78.1715 26.516 95.7032 24.4823 96.6695Z" fill="var(--fill-0, #7BF1AB)"/>
</svg>
