<svg width="470" height="430" viewBox="0 0 470 430" fill="none" xmlns="http://www.w3.org/2000/svg">
<path d="M278.378 113.979C276.231 112.39 270.537 111.09 267.959 110.638C267.959 114.148 273.068 126.22 273.944 130.457C274.645 133.847 273.068 141.286 272.192 144.582L263.041 146.728L199.915 144.582V151.79H188.02V231.624H155.407L154.684 236.758L144.514 285.355V312.216L244.68 313.494C251.209 314.129 265.151 315.017 268.683 313.494C272.215 311.971 278.635 322.9 281.403 328.555C282.299 334.124 283.052 346.352 278.897 350.715C274.742 355.077 277.166 361.419 278.897 364.045L290.669 373.047L308.241 357.034C310.838 351.58 312.482 357.034 314.3 353.225C315.754 350.178 319.176 350.686 320.706 351.321C322.062 353.456 326.384 357.588 332.824 357.034C340.874 356.341 344.769 369.585 348.729 360.929C352.689 352.273 354.031 358.801 362.168 354.783C368.677 351.568 372.242 357.541 373.211 360.929C383.582 360.785 404.322 360.157 404.322 358.801C404.322 357.446 407.612 352.557 409.256 350.282C413.688 335.671 433.435 336.288 442.755 338.423C440.816 331.083 447.487 328.548 451.065 328.199C451.959 318.392 454.873 297.827 459.374 294.018C463.875 290.209 463.847 283.775 463.27 281.034C462.462 279.505 460.655 277.156 459.894 279.995C459.132 282.835 453.517 282.852 450.805 282.506C447.083 277.774 439.483 267.704 438.86 265.28C438.236 262.856 435.638 262.424 434.417 262.51C424.963 261.5 405.898 258.044 405.274 252.296C404.495 245.112 399.129 247.016 398.956 241.476C398.783 235.936 393.675 236.975 394.022 232.993C394.368 229.012 387.27 229.964 388.395 225.03C389.521 220.096 381.99 220.009 382.855 216.893C383.721 213.777 371.43 205.208 368.573 204.515C366.288 203.961 359.888 196.09 356.974 192.224C356.484 190.233 355.797 185.732 356.974 183.654C358.151 181.577 354.291 180.423 352.213 180.105C349.097 176.124 342.363 167.571 340.355 165.217C337.844 162.274 337.238 168.333 336.488 157.6C335.738 146.866 331.872 145.568 328.929 145.308C326.574 145.1 324.827 141.644 324.247 139.941C320.066 135.815 311.305 126.888 309.712 124.188C307.722 120.812 303.047 120.898 301.489 120.898C299.931 120.898 291.621 116.657 289.544 113.979C287.882 111.836 285.504 112.736 284.523 113.454C283.369 114.291 280.524 115.567 278.378 113.979Z" fill="#FFA1AD"/>
<path d="M93.8788 310.986L144.243 312.238V285.377L154.412 236.781C145.542 235.069 127.092 231.805 124.257 232.442C124.257 232.442 117.489 229.573 115.876 227.741C114.259 227.283 110.344 226.642 107.625 227.741C104.227 229.115 84.7743 232.586 80.5078 232.586C76.2413 232.586 56.4933 228.765 49.9883 224.963C48.7459 230.162 45.9021 241.114 44.4664 243.322C42.6718 246.083 40.5846 261.676 39.4857 263.187C38.3869 264.698 37.0133 272.664 36.309 274.175C35.6048 275.686 32.7553 283.378 31.6564 285.377C30.7773 286.977 30.3115 291.304 30.1885 293.267L93.8788 313.003V310.986Z" fill="#DAB2FF"/>
<path d="M79.5643 96.6695C77.9373 97.4426 76.745 110.981 76.3523 117.653C93.848 117.534 129.504 118.402 132.164 122.834C133.185 120.322 135.877 115.949 138.481 118.553C141.735 121.807 144.772 126.349 142.024 126.609C139.276 126.869 149.328 131.063 154.39 130.846C158.439 130.672 165.478 133.955 168.491 135.619L165.252 143.935L167.551 144.97V147.116C170.949 148.201 177.819 150.645 178.108 151.744C178.108 151.744 184.93 152.492 188.16 152.178H200.055V144.97L263.181 147.116L272.331 144.97C273.207 141.675 274.784 134.236 274.083 130.846C273.207 126.609 268.099 114.537 268.099 111.026C265.798 108.035 260.589 99.6198 258.159 89.8853C255.73 80.1509 249.416 72.6822 246.563 70.1647C243.803 69.6125 237.784 63.8697 235.796 45.3163C233.808 26.7629 218.31 9.1483 210.809 2.66019C201.652 1.64793 181.875 -0.293746 176.022 0.0375653C168.705 0.451704 143.305 15.7749 139.163 22.5596C135.022 29.3443 112.244 47.5257 110.167 49.0442C108.505 50.259 96.6868 52.2959 90.9852 53.1625L91.8054 58.7078L82.7024 59.2835C83.4755 60.5171 83.0245 63.8779 82.7024 65.4041C81.8604 68.4656 81.2341 70.0015 78.9752 71.5246L55.9214 65.4041L55.082 67.5424C63.2428 69.5209 79.7778 73.9473 80.6317 75.8247C81.6992 78.1715 81.5981 95.7032 79.5643 96.6695Z" fill="#7BF1AB"/>
<path d="M57.2364 198.771L50.4722 225.414C56.9772 229.217 76.7252 233.038 80.9917 233.038C85.2582 233.038 104.71 229.567 108.109 228.193C110.828 227.094 114.743 227.735 116.36 228.193C117.973 230.025 124.741 232.893 124.741 232.893C127.576 232.257 146.026 235.521 154.896 237.232L155.619 232.098H188.233V152.264C185.003 152.577 178.181 151.83 178.181 151.83C177.892 150.731 171.022 148.287 167.623 147.202V145.056L165.325 144.02L168.563 135.704C165.55 134.041 158.512 130.758 154.462 130.931C149.4 131.148 139.349 126.954 142.097 126.694C144.844 126.434 141.807 121.892 138.553 118.638C135.95 116.035 133.257 120.408 132.236 122.92C129.577 118.487 93.9206 117.619 76.4249 117.739C74.3266 119.616 73.1578 136.733 72.8357 145.057C71.3172 148.006 68.4734 154.182 69.2465 155.286C70.0195 156.391 68.3348 160.072 67.3957 161.775C66.7242 163.385 65.5192 166.634 66.0714 166.744C66.7616 166.882 66.6236 171.438 65.3812 173.647C64.3872 175.414 59.5372 191.132 57.2364 198.771Z" fill="#FEF9C3"/>
</svg>
