<svg preserveAspectRatio="none" width="100%" height="100%" overflow="visible" style="display: block;" viewBox="0 0 22.7138 22.7138" fill="none" xmlns="http://www.w3.org/2000/svg">
<g id="Right icon wrapper">
<path id="Right icon" d="M16.0889 5.7373C16.3976 5.73736 16.6691 5.89541 16.8281 6.13477C16.8527 6.17173 16.8732 6.21053 16.8916 6.25C16.897 6.26146 16.9033 6.27246 16.9082 6.28418C16.913 6.29571 16.9166 6.30765 16.9209 6.31934C16.927 6.33583 16.9334 6.35221 16.9385 6.36914C16.9502 6.40823 16.9576 6.44819 16.9639 6.48828C16.9708 6.5329 16.9766 6.57845 16.9766 6.625V16.0889C16.9765 16.5788 16.5788 16.9765 16.0889 16.9766C15.599 16.9765 15.2022 16.5787 15.2021 16.0889V8.7666L7.25195 16.7168C6.90561 17.0627 6.34445 17.0626 5.99805 16.7168C5.65155 16.3703 5.65156 15.8084 5.99805 15.4619L13.9473 7.5127H6.625C6.13503 7.5127 5.73739 7.11495 5.7373 6.625C5.7373 6.13498 6.13498 5.7373 6.625 5.7373H16.0889Z" fill="var(--fill-0, #009368)"/>
</g>
</svg>
