<svg preserveAspectRatio="none" width="100%" height="100%" overflow="visible" style="display: block;" viewBox="0 0 52.4167 52.4167" fill="none" xmlns="http://www.w3.org/2000/svg">
<path id="Vector" d="M19.125 41.7917H27.625V47.4583C27.625 48.2098 27.9235 48.9305 28.4549 49.4618C28.9862 49.9932 29.7069 50.2917 30.4583 50.2917H36.125C36.8764 50.2917 37.5971 49.9932 38.1285 49.4618C38.6598 48.9305 38.9583 48.2098 38.9583 47.4583V38.9583C40.2782 38.5189 41.4774 37.778 42.4611 36.7944C43.4447 35.8108 44.1856 34.6115 44.625 33.2917H47.4583C48.2098 33.2917 48.9305 32.9932 49.4618 32.4618C49.9932 31.9304 50.2917 31.2098 50.2917 30.4583V24.7917C50.2917 24.0402 49.9932 23.3196 49.4618 22.7882C48.9305 22.2568 48.2098 21.9583 47.4583 21.9583H44.625C44.625 19.759 44.1129 17.5899 43.1294 15.6228C42.1458 13.6557 40.7178 11.9446 38.9583 10.625V2.125C37.1989 2.125 35.4636 2.53464 33.8899 3.32149C32.3162 4.10834 30.9473 5.25078 29.8917 6.65833L29.0417 7.79167H19.125C14.6163 7.79167 10.2923 9.58273 7.10419 12.7709C3.91607 15.959 2.125 20.283 2.125 24.7917V27.625C2.125 29.8243 2.63706 31.9934 3.62061 33.9605C4.60417 35.9276 6.03222 37.6387 7.79167 38.9583V47.4583C7.79167 48.2098 8.09018 48.9305 8.62153 49.4618C9.15288 49.9932 9.87355 50.2917 10.625 50.2917H16.2917C17.0431 50.2917 17.7638 49.9932 18.2951 49.4618C18.8265 48.9305 19.125 48.2098 19.125 47.4583V41.7917Z" stroke="var(--stroke-0, #65A30D)" stroke-width="4.25" stroke-linecap="round" stroke-linejoin="round"/>
</svg>
