<svg preserveAspectRatio="none" width="100%" height="100%" overflow="visible" style="display: block;" viewBox="0 0 51.5035 37.1258" fill="none" xmlns="http://www.w3.org/2000/svg">
<path id="Vector" d="M1.94628 19.3965C1.74664 18.8587 1.74664 18.2671 1.94628 17.7293C3.89062 13.0148 7.19104 8.98377 11.4291 6.14728C15.6672 3.31078 20.6521 1.79655 25.7518 1.79655C30.8515 1.79655 35.8363 3.31078 40.0744 6.14728C44.3125 8.98377 47.6129 13.0148 49.5573 17.7293C49.7569 18.2671 49.7569 18.8587 49.5573 19.3965C47.6129 24.111 44.3125 28.142 40.0744 30.9785C35.8363 33.815 30.8515 35.3292 25.7518 35.3292C20.6521 35.3292 15.6672 33.815 11.4291 30.9785C7.19104 28.142 3.89062 24.111 1.94628 19.3965Z" stroke="var(--stroke-0, #009368)" stroke-width="3.5931" stroke-linecap="round" stroke-linejoin="round"/>
</svg>
