<svg preserveAspectRatio="none" width="100%" height="100%" overflow="visible" style="display: block;" viewBox="0 0 19.8747 19.8747" fill="none" xmlns="http://www.w3.org/2000/svg">
<g id="Left icon wrapper">
<path id="Left icon" d="M9.9375 1.70801C12.653 1.70809 14.8545 3.90951 14.8545 6.625C14.8545 8.25109 14.0642 9.69181 12.8477 10.5869C13.7068 10.9545 14.4974 11.4837 15.1709 12.1572C16.5588 13.5452 17.3389 15.4278 17.3389 17.3906C17.3387 17.8192 16.9911 18.1669 16.5625 18.167C16.1338 18.167 15.7863 17.8193 15.7861 17.3906C15.7861 15.8396 15.1699 14.3517 14.0732 13.2549C12.9765 12.1581 11.4886 11.542 9.9375 11.542C8.38637 11.542 6.89857 12.1581 5.80176 13.2549C4.70497 14.3517 4.08887 15.8395 4.08887 17.3906C4.08873 17.8193 3.74115 18.167 3.3125 18.167C2.88382 18.167 2.53627 17.8193 2.53613 17.3906C2.53613 15.4277 3.31613 13.5452 4.7041 12.1572C5.37746 11.4839 6.16754 10.9544 7.02637 10.5869C5.81016 9.69178 5.02054 8.25088 5.02051 6.625C5.02051 3.90946 7.22196 1.70801 9.9375 1.70801ZM9.9375 3.26074C8.0795 3.26074 6.57324 4.767 6.57324 6.625C6.5733 8.48295 8.07953 9.98926 9.9375 9.98926C11.7954 9.98917 13.3017 8.4829 13.3018 6.625C13.3018 4.76705 11.7954 3.26083 9.9375 3.26074Z" fill="var(--fill-0, #FAFAFA)"/>
</g>
</svg>
