<svg width="343" height="362" viewBox="0 0 343 362" fill="none" xmlns="http://www.w3.org/2000/svg">
<path d="M144.288 179.432V209.718M144.288 300.579H83.1426M144.288 300.579V255.435M144.288 300.579L83.1426 255.435M83.1426 300.579V255.435M83.1426 300.579L144.288 255.435M83.1426 255.435H144.288M83.1426 255.435V209.718M83.1426 255.435L144.288 209.718M144.288 255.435V209.718M144.288 255.435L83.1426 209.718M144.288 209.718H83.1426M83.1426 209.718V179.432" stroke="#909090" stroke-width="1.8033"/>
<path d="M152.464 73.9356C143.222 75.861 141.682 83.1775 151.694 86.6432V101.276H205.991V86.6432C214.462 83.5626 214.462 76.246 204.065 73.9356V49.6755C206.761 48.5202 206.761 44.2843 204.065 42.744C200.984 34.6573 193.471 26.3348 180.96 25.4153V23.1049C185.966 20.7944 184.041 12.7077 178.65 12.7077L178.265 0H177.495V12.7077C172.873 12.7077 169.408 19.6391 174.799 23.1049V25.4153C165.557 25.4153 154.775 34.2722 152.464 42.744C149.769 44.2843 149.769 48.1351 152.464 49.6755V73.9356Z" fill="#FF7373"/>
<path d="M151.696 89.723C167.099 85.8721 187.893 85.4585 205.992 89.723C211.327 90.98 214.464 93.9594 214.464 96.2699V108.207C219.47 112.443 212.924 118.604 206.763 119.374H149.77C147.075 118.604 138.218 114.754 142.454 108.207V96.2699C142.454 92.8041 146.735 91.3004 151.696 89.723Z" fill="#EAD4B1"/>
<path d="M168.638 45.1375C171.65 44.7085 174.765 44.5066 177.88 44.5245C181.262 44.544 184.644 44.8224 187.892 45.3502C190.434 45.7632 192.894 46.3288 195.209 47.0426C197.264 47.6761 199.204 48.4262 200.985 49.2899V59.6871V73.55C199.187 72.9505 197.249 72.4358 195.209 72.0038C192.886 71.5119 190.429 71.1272 187.892 70.8464C184.649 70.4875 181.274 70.2984 177.88 70.2727C174.788 70.2492 171.679 70.3612 168.638 70.6036C166.138 70.8029 163.684 71.0903 161.322 71.463C159.039 71.8231 156.843 72.2629 154.775 72.7799V59.6871V49.2899C156.778 48.2584 158.981 47.3989 161.322 46.7071C163.646 46.0202 166.105 45.4985 168.638 45.1375Z" fill="#C6E2F7"/>
<path d="M168.638 45.1375V57.1279M168.638 45.1375C171.65 44.7085 174.765 44.5066 177.88 44.5245M168.638 45.1375C166.105 45.4985 163.646 46.0202 161.322 46.7071M168.638 57.1279V70.6036M168.638 57.1279C171.651 56.8375 174.768 56.6776 177.88 56.6555M168.638 57.1279C166.104 57.3723 163.643 57.709 161.322 58.1338M168.638 70.6036C171.679 70.3612 174.788 70.2492 177.88 70.2727M168.638 70.6036C166.138 70.8028 163.684 71.0903 161.322 71.463M177.88 44.5245V56.6555M177.88 44.5245C181.262 44.544 184.644 44.8224 187.892 45.3502M177.88 70.2727V56.6555M177.88 70.2727C181.274 70.2984 184.649 70.4874 187.892 70.8464M177.88 56.6555C181.27 56.6315 184.655 56.7711 187.892 57.0836M187.892 45.3502V57.0836M187.892 45.3502C190.434 45.7632 192.894 46.3288 195.209 47.0426M187.892 70.8464V57.0836M187.892 70.8464C190.429 71.1272 192.886 71.5119 195.209 72.0038M187.892 57.0836C190.446 57.3301 192.908 57.6843 195.209 58.1506M195.209 47.0426C197.264 47.676 199.204 48.4262 200.985 49.2899V59.6871M195.209 47.0426V58.1506M195.209 72.0038C197.249 72.4358 199.187 72.9505 200.985 73.55V59.6871M195.209 72.0038V58.1506M195.209 58.1506C197.282 58.5706 199.224 59.0817 200.985 59.6871M161.322 46.7071C158.981 47.3989 156.778 48.2584 154.775 49.2899V59.6871M161.322 46.7071V58.1338M161.322 71.463C159.039 71.8231 156.843 72.2629 154.775 72.7798V59.6871M161.322 71.463V58.1338M161.322 58.1338C158.975 58.5632 156.771 59.0824 154.775 59.6871" stroke="#FF7373" stroke-width="0.450827"/>
<path d="M211.383 113.984L145.149 113.6C142.453 99.3514 219.084 100.507 211.383 113.984Z" fill="white"/>
<path d="M213.307 209.868C195.594 202.937 159.011 202.552 143.223 209.868L146.303 164.429C160.936 157.497 196.364 156.727 210.227 164.429L213.307 209.868Z" fill="#FF7373"/>
<path d="M216.774 256.079C199.06 249.148 155.546 248.763 139.758 256.079L143.224 209.869C155.931 202.553 198.675 202.938 213.308 209.869L216.774 256.079Z" fill="white"/>
<path d="M219.854 302.241L136.677 302.241L139.757 256.078C152.099 249.38 202.497 249.013 216.774 256.078L219.854 302.241Z" fill="#FF7373"/>
<path d="M212.907 99.9766C212.915 99.8463 212.812 99.7363 212.681 99.7363H206.217C206.092 99.7363 205.991 99.8372 205.991 99.9617V108.58C205.991 108.671 206.046 108.754 206.131 108.787C207.89 109.468 211.383 110.246 211.383 114.369C213.658 111.336 212.595 105.184 212.907 99.9766Z" fill="#EAD4B1"/>
<path d="M143.625 99.9789C143.616 99.8486 143.719 99.7363 143.85 99.7363H150.314C150.439 99.7363 150.54 99.8372 150.54 99.9617V108.58C150.54 108.671 150.485 108.754 150.399 108.787C148.682 109.445 145.943 109.792 145.149 113.214C143.607 108.006 143.958 105.084 143.625 99.9789Z" fill="#EAD4B1"/>
<path d="M211.384 113.599C208.688 105.512 148.538 105.127 145.15 113.599C141.761 122.071 214.08 121.686 211.384 113.599Z" fill="#E4E4E4"/>
<path d="M210.227 164.431C194.824 156.729 160.167 157.884 146.304 164.431L149.769 118.221C159.011 109.749 194.824 109.749 206.761 117.451L210.227 164.431Z" fill="white"/>
<path d="M152.851 97.6512C152.851 97.5267 152.952 97.4258 153.076 97.4258H159.557C159.681 97.4258 159.782 97.5267 159.782 97.6512V106.785C159.782 106.9 159.695 106.996 159.581 107.01C156.651 107.354 154.965 107.748 153.124 108.149C152.983 108.179 152.851 108.072 152.851 107.929V97.6512Z" fill="#EAD4B1"/>
<path d="M162.862 97.6512C162.862 97.5267 162.963 97.4258 163.088 97.4258H169.568C169.693 97.4258 169.794 97.5267 169.794 97.6512V105.918C169.794 106.039 169.699 106.138 169.578 106.143C167.722 106.228 164.452 106.448 163.121 106.611C162.984 106.628 162.862 106.522 162.862 106.384V97.6512Z" fill="#EAD4B1"/>
<path d="M174.415 97.6512C174.415 97.5267 174.516 97.4258 174.64 97.4258H181.121C181.246 97.4258 181.346 97.5267 181.346 97.6512V105.768C181.346 105.893 181.246 105.993 181.121 105.993H174.64C174.516 105.993 174.415 105.893 174.415 105.768V97.6512Z" fill="#EAD4B1"/>
<path d="M192.899 97.6512C192.899 97.5267 192.798 97.4258 192.674 97.4258H186.193C186.069 97.4258 185.968 97.5267 185.968 97.6512V105.918C185.968 106.039 186.063 106.138 186.183 106.143C188.039 106.228 191.31 106.448 192.641 106.611C192.777 106.628 192.899 106.522 192.899 106.384V97.6512Z" fill="#EAD4B1"/>
<path d="M202.911 97.6512C202.911 97.5267 202.81 97.4258 202.686 97.4258H196.205C196.081 97.4258 195.98 97.5267 195.98 97.6512V106.785C195.98 106.9 196.067 106.996 196.18 107.01C199.111 107.354 200.797 107.748 202.638 108.149C202.778 108.179 202.911 108.072 202.911 107.929V97.6512Z" fill="#EAD4B1"/>
<path d="M182.887 132.082H175.186V143.634H182.887V132.082Z" fill="#C6E2F7"/>
<path d="M182.887 132.082H175.186V143.634H182.887V132.082Z" fill="#C6E2F7"/>
<path d="M182.887 178.292H175.186V189.844H182.887V178.292Z" fill="#C6E2F7"/>
<path d="M182.887 178.292H175.186V189.844H182.887V178.292Z" fill="#C6E2F7"/>
<path d="M182.887 224.501H175.186V236.054H182.887V224.501Z" fill="#C6E2F7"/>
<path d="M182.887 224.501H175.186V236.054H182.887V224.501Z" fill="#C6E2F7"/>
<path d="M182.887 270.711H175.186V282.264H182.887V270.711Z" fill="#C6E2F7"/>
<path d="M182.887 270.711H175.186V282.264H182.887V270.711Z" fill="#C6E2F7"/>
<path d="M182.887 132.082H175.186V143.634H182.887V132.082Z" stroke="#E2C9AC" stroke-width="0.901653"/>
<path d="M182.887 132.082H175.186V143.634H182.887V132.082Z" stroke="#E2C9AC" stroke-width="0.901653"/>
<path d="M182.887 178.292H175.186V189.844H182.887V178.292Z" stroke="#E2C9AC" stroke-width="0.901653"/>
<path d="M182.887 178.292H175.186V189.844H182.887V178.292Z" stroke="#E2C9AC" stroke-width="0.901653"/>
<path d="M182.887 224.501H175.186V236.054H182.887V224.501Z" stroke="#E2C9AC" stroke-width="0.901653"/>
<path d="M182.887 224.501H175.186V236.054H182.887V224.501Z" stroke="#E2C9AC" stroke-width="0.901653"/>
<path d="M182.887 270.711H175.186V282.264H182.887V270.711Z" stroke="#E2C9AC" stroke-width="0.901653"/>
<path d="M182.887 270.711H175.186V282.264H182.887V270.711Z" stroke="#E2C9AC" stroke-width="0.901653"/>
<g filter="url(#filter0_d_2695_10203)">
<path d="M82.2531 236.439L136.385 275.377V331.808H28.3389L28.3389 275.377L82.2531 236.439Z" fill="#FFFEFB"/>
<rect x="28.3389" y="324.684" width="108.046" height="7.12459" fill="#009368"/>
<rect x="28.3389" y="311.531" width="108.046" height="7.12459" fill="#009368"/>
<rect x="28.3389" y="298.377" width="108.046" height="7.12459" fill="#009368"/>
<rect x="28.3389" y="285.225" width="108.046" height="7.12459" fill="#009368"/>
<rect x="28.3389" y="272.072" width="108.046" height="7.12459" fill="#009368"/>
<rect x="42.0566" y="258.918" width="81.301" height="7.12459" fill="#009368"/>
<rect x="60.1553" y="245.766" width="45.678" height="7.12459" fill="#009368"/>
<rect width="82.7391" height="14.0087" rx="0.67624" transform="matrix(0.819759 -0.572709 0.573288 0.819354 14.457 268.066)" fill="#009368"/>
<rect width="82.7391" height="14.0087" rx="0.67624" transform="matrix(-0.819759 -0.572709 -0.573288 0.819354 150.381 268.066)" fill="#009368"/>
<rect x="47.8032" y="272.749" width="24.7418" height="32.0443" fill="#3182CE" stroke="#FFFEFB" stroke-width="1.35248"/>
<rect x="92.1743" y="272.749" width="24.7418" height="32.0443" fill="#3182CE" stroke="#FFFEFB" stroke-width="1.35248"/>
</g>
<path d="M267.687 129.123V159.41M267.687 315.986V290.843M267.687 250.27H206.542M267.687 250.27V290.843M267.687 250.27L206.542 290.843M267.687 250.27V205.125M267.687 250.27L206.542 205.125M206.542 250.27V290.843M206.542 250.27V205.125M206.542 250.27L267.687 205.125M206.542 250.27L267.687 290.843M206.542 290.843H267.687M206.542 290.843V129.123V159.41M206.542 290.843V315.986M206.542 205.125H267.687M206.542 205.125V159.41M206.542 205.125L267.687 159.41M267.687 205.125V159.41M267.687 205.125L206.542 159.41M267.687 159.41H206.542" stroke="#909090" stroke-width="1.8033"/>
<rect x="16.324" y="337.995" width="32.1977" height="11.6841" fill="#E5815B" stroke="#FFFEFB" stroke-width="0.450824"/>
<rect x="313.674" y="335.475" width="32.1977" height="11.6841" transform="rotate(25.6978 313.674 335.475)" fill="#E5815B" stroke="#FFFEFB" stroke-width="0.450824"/>
<rect x="0.225412" y="349.454" width="32.1977" height="11.6841" fill="#E5815B" stroke="#FFFEFB" stroke-width="0.450824"/>
<rect x="285.863" y="349.557" width="32.1977" height="11.6841" fill="#E5815B" stroke="#FFFEFB" stroke-width="0.450824"/>
<rect x="32.4227" y="349.454" width="32.1977" height="11.6841" fill="#E5815B" stroke="#FFFEFB" stroke-width="0.450824"/>
<g filter="url(#filter1_d_2695_10203)">
<path d="M220.86 265.854L274.991 304.791V361.222H166.945L166.945 304.791L220.86 265.854Z" fill="#FFFEFB"/>
<rect x="166.945" y="354.098" width="108.046" height="7.12459" fill="#FFC415"/>
<rect x="166.945" y="340.945" width="108.046" height="7.12459" fill="#FFC415"/>
<rect x="166.945" y="327.791" width="108.046" height="7.12459" fill="#FFC415"/>
<rect x="166.945" y="314.639" width="108.046" height="7.12459" fill="#FFC415"/>
<rect x="166.945" y="301.486" width="108.046" height="7.12459" fill="#FFC415"/>
<rect x="180.663" y="288.332" width="81.301" height="7.12459" fill="#FFC415"/>
<rect x="198.762" y="275.18" width="45.678" height="7.12459" fill="#FFC415"/>
<rect width="82.7391" height="14.0087" rx="0.67624" transform="matrix(0.819759 -0.572709 0.573288 0.819354 153.063 297.48)" fill="#FFC415"/>
<rect width="82.7391" height="14.0087" rx="0.67624" transform="matrix(-0.819759 -0.572709 -0.573288 0.819354 288.987 297.48)" fill="#FFC415"/>
<rect x="186.41" y="302.163" width="24.7418" height="32.0443" fill="#3182CE" stroke="#FFFEFB" stroke-width="1.35248"/>
<rect x="230.781" y="302.163" width="24.7418" height="32.0443" fill="#3182CE" stroke="#FFFEFB" stroke-width="1.35248"/>
</g>
<defs>
<filter id="filter0_d_2695_10203" x="14.457" y="219.35" width="137.705" height="112.887" filterUnits="userSpaceOnUse" color-interpolation-filters="sRGB">
<feFlood flood-opacity="0" result="BackgroundImageFix"/>
<feColorMatrix in="SourceAlpha" type="matrix" values="0 0 0 0 0 0 0 0 0 0 0 0 0 0 0 0 0 0 127 0" result="hardAlpha"/>
<feOffset dx="0.901653" dy="-0.450827"/>
<feGaussianBlur stdDeviation="0.439556"/>
<feComposite in2="hardAlpha" operator="out"/>
<feColorMatrix type="matrix" values="0 0 0 0 0 0 0 0 0 0 0 0 0 0 0 0 0 0 0.19 0"/>
<feBlend mode="normal" in2="BackgroundImageFix" result="effect1_dropShadow_2695_10203"/>
<feBlend mode="normal" in="SourceGraphic" in2="effect1_dropShadow_2695_10203" result="shape"/>
</filter>
<filter id="filter1_d_2695_10203" x="153.063" y="248.764" width="137.705" height="112.887" filterUnits="userSpaceOnUse" color-interpolation-filters="sRGB">
<feFlood flood-opacity="0" result="BackgroundImageFix"/>
<feColorMatrix in="SourceAlpha" type="matrix" values="0 0 0 0 0 0 0 0 0 0 0 0 0 0 0 0 0 0 127 0" result="hardAlpha"/>
<feOffset dx="0.901653" dy="-0.450827"/>
<feGaussianBlur stdDeviation="0.439556"/>
<feComposite in2="hardAlpha" operator="out"/>
<feColorMatrix type="matrix" values="0 0 0 0 0 0 0 0 0 0 0 0 0 0 0 0 0 0 0.19 0"/>
<feBlend mode="normal" in2="BackgroundImageFix" result="effect1_dropShadow_2695_10203"/>
<feBlend mode="normal" in="SourceGraphic" in2="effect1_dropShadow_2695_10203" result="shape"/>
</filter>
</defs>
</svg>
