<svg width="165" height="58" viewBox="0 0 165 58" fill="none" xmlns="http://www.w3.org/2000/svg">
<path fill-rule="evenodd" clip-rule="evenodd" d="M37.5044 29.4163C37.5044 17.3973 46.6898 8.87255 57.6653 8.5864C65.9473 8.5864 70.9503 12.7661 73.9582 16.4758C74.5051 15.6217 80.9101 7.71332 91.8132 8.72195V17.5273C85.1326 16.5039 78.1073 21.5577 78.368 29.3828C78.368 36.1129 83.7049 40.8841 90.054 40.8841C95.3099 40.8841 101.687 36.9313 101.788 29.3273C101.844 25.1045 99.803 21.5976 96.369 19.1539V8.54122H138.563L138.561 18.3374C138.507 21.0716 140.551 21.9897 140.551 21.9897C144.549 24.0893 157.034 26.9627 156.514 39.2412C155.991 51.5903 137.893 52.1092 127.943 44.9193L132.346 37.8739C137.786 41.9009 144.791 42.2252 146.803 40.727C150.021 38.3307 148.878 33.9306 138.561 30.5271C132.962 28.6799 128.44 25.0931 128.016 19.1143H123.433V49.5233H114.953V19.1143H107.826C119.25 41.2636 90.6322 61.0015 73.948 41.697C64.0253 53.3022 50.2962 49.6288 45.1091 44.9465C44.4771 46.1214 41.7318 50.0227 35.3504 49.3795C28.4583 48.6849 25.4934 41.6739 23.317 37.4542C20.5819 32.1512 21.4765 29.7183 24.434 25.9507C28.8225 20.3603 26.0246 19.1849 22.0343 19.1849C17.4991 19.2706 17.1144 19.3596 17.1144 22.4974L17.1144 48.9277H8.54199V16.0433C8.54201 10.6782 12.2175 8.49603 20.4065 8.49603C36.4456 8.49603 37.6276 15.0037 36.4456 21.5723C35.4077 27.3399 28.2059 29.2356 31.1183 35.1244C33.4272 39.793 36.1579 43.019 39.4872 37.8364C38.8033 36.4781 37.5044 33.0626 37.5044 29.4163ZM57.918 17.3973C51.3912 17.3973 46.1001 22.6975 46.1001 29.2356C46.1001 35.7736 51.3912 41.0738 57.918 41.0738C64.4449 41.0738 69.6457 35.7736 69.6457 29.2356C69.6457 22.6975 64.4449 17.3973 57.918 17.3973Z" fill="#009368"/>
</svg>
