<svg width="102" height="36" viewBox="0 0 102 36" fill="none" xmlns="http://www.w3.org/2000/svg">
<path fill-rule="evenodd" clip-rule="evenodd" d="M23.1582 18.1369C23.1582 10.7265 28.83 5.47043 35.6071 5.294C40.7211 5.294 43.8103 7.87106 45.6676 10.1583C46.0053 9.6317 49.9603 4.75569 56.6927 5.37758V10.8066C52.5676 10.1756 48.2296 13.2916 48.3905 18.1162C48.3905 22.2658 51.686 25.2075 55.6064 25.2075C58.8518 25.2075 62.7895 22.7704 62.852 18.0821C62.8867 15.4784 61.6262 13.3162 59.5058 11.8095V5.26614H85.5597L85.5586 11.3061C85.5249 12.9919 86.7875 13.5579 86.7875 13.5579C89.256 14.8525 96.9653 16.6241 96.644 24.1946C96.3209 31.8086 85.1459 32.1285 79.0019 27.6955L81.7205 23.3516C85.0799 25.8345 89.4053 26.0344 90.6476 25.1107C92.6345 23.6332 91.9287 20.9203 85.5586 18.8218C82.1012 17.6829 79.3092 15.4714 79.0473 11.7851H76.2173V30.5341H70.981V11.7851H66.5803C73.634 25.4415 55.9634 37.6111 45.6613 25.7087C39.5342 32.864 31.0568 30.5992 27.8539 27.7123C27.4636 28.4366 25.7685 30.842 21.8281 30.4455C17.5724 30.0172 15.7416 25.6945 14.3978 23.0928C12.7089 19.8232 13.2613 18.3231 15.0875 16.0002C17.7973 12.5533 16.0696 11.8286 13.6058 11.8286C10.8054 11.8815 10.5678 11.9363 10.5678 13.871L10.5678 30.1669H5.27454V9.89163C5.27454 6.58369 7.5441 5.23828 12.6006 5.23828C22.5044 5.23828 23.2343 9.25064 22.5044 13.3006C21.8635 16.8567 17.4166 18.0255 19.2149 21.6563C20.6406 24.5348 22.3267 26.5238 24.3825 23.3284C23.9602 22.4909 23.1582 20.3851 23.1582 18.1369ZM35.7631 10.7265C31.733 10.7265 28.4658 13.9943 28.4658 18.0255C28.4658 22.0566 31.733 25.3245 35.7631 25.3245C39.7933 25.3245 43.0048 22.0566 43.0048 18.0255C43.0048 13.9943 39.7933 10.7265 35.7631 10.7265Z" fill="#FFFEFC"/>
</svg>
