<svg width="58" height="58" viewBox="0 0 58 58" fill="none" xmlns="http://www.w3.org/2000/svg">
<path d="M4.93928 29.5784C4.73964 29.0406 4.73964 28.4491 4.93928 27.9112C6.88362 23.1967 10.184 19.1657 14.4221 16.3292C18.6602 13.4927 23.6451 11.9785 28.7448 11.9785C33.8445 11.9785 38.8293 13.4927 43.0674 16.3292C47.3055 19.1657 50.6059 23.1967 52.5503 27.9112C52.7499 28.4491 52.7499 29.0406 52.5503 29.5784C50.6059 34.2929 47.3055 38.324 43.0674 41.1605C38.8293 43.9969 33.8445 45.5112 28.7448 45.5112C23.6451 45.5112 18.6602 43.9969 14.4221 41.1605C10.184 38.324 6.88362 34.2929 4.93928 29.5784Z" stroke="#009368" stroke-width="3.5931" stroke-linecap="round" stroke-linejoin="round"/>
<path d="M28.7448 35.931C32.7136 35.931 35.931 32.7136 35.931 28.7448C35.931 24.776 32.7136 21.5586 28.7448 21.5586C24.776 21.5586 21.5586 24.776 21.5586 28.7448C21.5586 32.7136 24.776 35.931 28.7448 35.931Z" stroke="#525252" stroke-width="3.5931" stroke-linecap="round" stroke-linejoin="round"/>
</svg>
