<svg width="58" height="58" viewBox="0 0 58 58" fill="none" xmlns="http://www.w3.org/2000/svg">
<path d="M28.7446 31.1404V4.79102L47.9078 14.3726L28.7446 23.9542" stroke="#009368" stroke-width="3.5931" stroke-linecap="round" stroke-linejoin="round"/>
<path d="M49.2519 24.4856C50.5266 28.4144 50.6459 32.6267 49.5955 36.6213C48.5451 40.616 46.3694 44.2248 43.327 47.0184C40.2847 49.8121 36.5038 51.6729 32.4343 52.3797C28.3648 53.0864 24.178 52.6092 20.3719 51.0049C16.5658 49.4005 13.3006 46.7366 10.965 43.33C8.62928 39.9234 7.32136 35.9176 7.19682 31.789C7.07227 27.6605 8.13634 23.5831 10.2624 20.0419C12.3885 16.5007 15.4871 13.6448 19.1896 11.814" stroke="#009368" stroke-width="3.5931" stroke-linecap="round" stroke-linejoin="round"/>
<path d="M19.1682 23.9468C17.9679 25.5446 17.1864 27.4173 16.8951 29.3944C16.6037 31.3714 16.8117 33.39 17.5 35.2661C18.1884 37.1423 19.3353 38.8163 20.8362 40.1358C22.3371 41.4553 24.1443 42.3782 26.0931 42.8205C28.042 43.2629 30.0706 43.2105 31.994 42.6682C33.9175 42.126 35.6746 41.111 37.1055 39.7159C38.5363 38.3208 39.5953 36.5898 40.186 34.6806C40.7767 32.7715 40.8802 30.7449 40.4873 28.7855" stroke="#525252" stroke-width="3.5931" stroke-linecap="round" stroke-linejoin="round"/>
</svg>
