<svg width="215" height="60" viewBox="0 0 215 60" fill="none" xmlns="http://www.w3.org/2000/svg">
<path fill-rule="evenodd" clip-rule="evenodd" d="M41.9694 30.2706C41.9694 12.8797 55.2801 0.544809 71.1846 0.130758C83.1861 0.130758 90.4359 6.17863 94.7946 11.5463C95.5873 10.3105 104.869 -1.13254 120.668 0.326896V13.0678C110.988 11.587 100.807 18.8996 101.185 30.2221C101.185 39.9602 108.919 46.8639 118.119 46.8639C125.735 46.8639 134.976 41.1444 135.123 30.1419C135.205 24.0316 132.246 18.9573 127.27 15.4215V0.0653792H188.414L188.411 14.2399C188.332 18.1962 191.295 19.5246 191.295 19.5246C197.088 22.5627 215.18 26.7203 214.426 44.4867C213.668 62.3553 187.443 63.106 173.024 52.7027L179.404 42.5084C187.288 48.3352 197.439 48.8045 200.354 46.6367C205.017 43.1693 203.36 36.8026 188.411 31.8779C180.297 29.205 173.745 24.0152 173.13 15.3641H166.489V59.3643H154.2V15.3641H143.873C160.426 47.413 118.957 75.9727 94.7798 48.0402C80.4009 64.8322 60.5061 59.5171 52.9894 52.7421C52.0735 54.442 48.0954 60.087 38.848 59.1563C28.8607 58.1512 24.5643 48.0067 21.4105 41.901C17.447 34.2279 18.7434 30.7075 23.0291 25.256C29.3885 17.167 25.334 15.4662 19.5518 15.4662C12.9798 15.5903 12.4223 15.719 12.4223 20.2593L12.4223 58.5025H0V10.9205C2.04476e-05 3.15742 5.32623 0 17.1929 0C40.4351 0 42.148 9.41622 40.4351 18.9208C38.9311 27.2662 28.495 30.0091 32.7153 38.5299C36.0612 45.2851 40.0182 49.953 44.8428 42.454C43.8517 40.4886 41.9694 35.5465 41.9694 30.2706ZM71.5508 12.8797C62.0928 12.8797 54.4255 20.5488 54.4255 30.0091C54.4255 39.4693 62.0928 47.1384 71.5508 47.1384C81.0089 47.1384 88.5455 39.4693 88.5455 30.0091C88.5455 20.5488 81.0089 12.8797 71.5508 12.8797Z" fill="#009368"/>
</svg>
