<svg width="148" height="42" viewBox="0 0 148 42" fill="none" xmlns="http://www.w3.org/2000/svg">
<path fill-rule="evenodd" clip-rule="evenodd" d="M28.9624 20.9203C28.9624 8.90128 38.1478 0.376522 49.1233 0.0903683C57.4054 0.0903683 62.4083 4.2701 65.4162 7.97977C65.9632 7.12568 72.3681 -0.782709 83.2712 0.225921V9.03127C76.5906 8.0079 69.5653 13.0617 69.826 20.8867C69.826 27.6169 75.1629 32.388 81.512 32.388C86.7679 32.388 93.1449 28.4352 93.2461 20.8313C93.3023 16.6084 91.261 13.1016 87.827 10.6579V0.0451842H130.021L130.019 9.84132C129.965 12.5755 132.01 13.4937 132.01 13.4937C136.007 15.5933 148.492 18.4666 147.972 30.7452C147.449 43.0943 129.351 43.6131 119.401 36.4233L123.804 29.3779C129.244 33.4049 136.249 33.7292 138.261 32.231C141.479 29.8347 140.336 25.4346 130.019 22.0311C124.42 20.1838 119.898 16.5971 119.474 10.6183H114.891V41.0272H106.411V10.6183H99.2842C110.708 32.7676 82.0902 52.5054 65.406 33.201C55.4833 44.8061 41.7542 41.1328 36.5671 36.4505C35.9351 37.6254 33.1898 41.5266 26.8084 40.8835C19.9163 40.1888 16.9514 33.1778 14.775 28.9582C12.0399 23.6552 12.9345 21.2222 15.892 17.4547C20.2805 11.8642 17.4826 10.6888 13.4923 10.6888C8.95713 10.7746 8.57245 10.8635 8.57245 14.0014L8.57245 40.4316H0V7.54726C1.41105e-05 2.18212 3.67554 0 11.8645 0C27.9036 0 29.0856 6.50763 27.9036 13.0763C26.8657 18.8439 19.6639 20.7395 22.5763 26.6283C24.8852 31.2969 27.6159 34.523 30.9452 29.3403C30.2613 27.982 28.9624 24.5665 28.9624 20.9203ZM49.376 8.90128C42.8492 8.90128 37.5581 14.2014 37.5581 20.7395C37.5581 27.2776 42.8492 32.5778 49.376 32.5778C55.9029 32.5778 61.1037 27.2776 61.1037 20.7395C61.1037 14.2014 55.9029 8.90128 49.376 8.90128Z" fill="#084D92"/>
</svg>
